solid Untitled-56be9963
facet normal 0.10568074416052607 -0.9944001107771847 0.0
  outer loop
    vertex 15.19517609315724 34.43060058158022 0.0
    vertex 13.862890401951722 34.10911393671897 -1.9999999999999998
    vertex 15.19517609315724 34.43060058158022 -1.9999999999999998
  endloop
endfacet
facet normal 0.3594494472472909 -0.9331645593750423 0.0
  outer loop
    vertex 13.862890401951722 34.10911393671897 -1.9999999999999998
    vertex 15.19517609315724 34.43060058158022 0.0
    vertex 13.862890401951722 34.10911393671897 0.0
  endloop
endfacet
facet normal -0.15528992699509234 -0.9878689379537443 0.0
  outer loop
    vertex 16.56527211672424 34.396311924257155 0.0
    vertex 15.19517609315724 34.43060058158022 -1.9999999999999998
    vertex 16.56527211672424 34.396311924257155 -1.9999999999999998
  endloop
endfacet
facet normal 0.10568074416052607 -0.9944001107771847 0.0
  outer loop
    vertex 15.19517609315724 34.43060058158022 -1.9999999999999998
    vertex 16.56527211672424 34.396311924257155 0.0
    vertex 15.19517609315724 34.43060058158022 0.0
  endloop
endfacet
facet normal -0.40567784625473374 -0.9140161295393645 0.0
  outer loop
    vertex 17.87980869283735 34.00858468008167 0.0
    vertex 16.56527211672424 34.396311924257155 -1.9999999999999998
    vertex 17.87980869283735 34.00858468008167 -1.9999999999999998
  endloop
endfacet
facet normal -0.15528992699509234 -0.9878689379537443 0.0
  outer loop
    vertex 16.56527211672424 34.396311924257155 -1.9999999999999998
    vertex 17.87980869283735 34.00858468008167 0.0
    vertex 16.56527211672424 34.396311924257155 0.0
  endloop
endfacet
facet normal -0.6284194907064536 -0.7778746323799494 0.0
  outer loop
    vertex 19.049202326208878 33.29384181999473 0.0
    vertex 17.87980869283735 34.00858468008167 -1.9999999999999998
    vertex 19.049202326208878 33.29384181999473 -1.9999999999999998
  endloop
endfacet
facet normal -0.40567784625473374 -0.9140161295393645 0.0
  outer loop
    vertex 17.87980869283735 34.00858468008167 -1.9999999999999998
    vertex 19.049202326208878 33.29384181999473 0.0
    vertex 17.87980869283735 34.00858468008167 0.0
  endloop
endfacet
facet normal -0.6284194907064536 -0.7778746323799494 0.0
  outer loop
    vertex 19.049202326208878 33.29384181999473 0.0
    vertex 19.993760773238908 32.30079188874287 -1.9999999999999998
    vertex 19.993760773238908 32.30079188874287 0.0
  endloop
endfacet
facet normal -0.8083353853788392 -0.5887222645224516 0.0
  outer loop
    vertex 19.993760773238908 32.30079188874287 -1.9999999999999998
    vertex 19.049202326208878 33.29384181999473 0.0
    vertex 19.049202326208878 33.29384181999473 -1.9999999999999998
  endloop
endfacet
facet normal -0.8083353853788392 -0.5887222645224516 0.0
  outer loop
    vertex 19.993760773238908 32.30079188874287 0.0
    vertex 20.64911393671897 31.097109598048277 -1.9999999999999998
    vertex 20.64911393671897 31.097109598048277 0.0
  endloop
endfacet
facet normal -0.9331645593750426 -0.35944944724729067 0.0
  outer loop
    vertex 20.64911393671897 31.097109598048277 -1.9999999999999998
    vertex 19.993760773238908 32.30079188874287 0.0
    vertex 19.993760773238908 32.30079188874287 -1.9999999999999998
  endloop
endfacet
facet normal -0.9331645593750426 -0.35944944724729067 0.0
  outer loop
    vertex 20.64911393671897 31.097109598048277 0.0
    vertex 20.970600581580218 29.76482390684276 -1.9999999999999998
    vertex 20.970600581580218 29.76482390684276 0.0
  endloop
endfacet
facet normal -0.9944001107771848 -0.10568074416052499 0.0
  outer loop
    vertex 20.970600581580218 29.76482390684276 -1.9999999999999998
    vertex 20.64911393671897 31.097109598048277 0.0
    vertex 20.64911393671897 31.097109598048277 -1.9999999999999998
  endloop
endfacet
facet normal -0.9944001107771848 -0.10568074416052499 0.0
  outer loop
    vertex 20.970600581580218 29.76482390684276 0.0
    vertex 20.936311924257154 28.394727883275767 -1.9999999999999998
    vertex 20.936311924257154 28.394727883275767 0.0
  endloop
endfacet
facet normal -0.9878689379537443 0.15528992699509275 0.0
  outer loop
    vertex 20.936311924257154 28.394727883275767 -1.9999999999999998
    vertex 20.970600581580218 29.76482390684276 0.0
    vertex 20.970600581580218 29.76482390684276 -1.9999999999999998
  endloop
endfacet
facet normal -0.9878689379537443 0.15528992699509275 0.0
  outer loop
    vertex 20.936311924257154 28.394727883275767 0.0
    vertex 20.54858468008166 27.08019130716265 -1.9999999999999998
    vertex 20.54858468008166 27.08019130716265 0.0
  endloop
endfacet
facet normal -0.9140161295393648 0.4056778462547334 0.0
  outer loop
    vertex 20.54858468008166 27.08019130716265 -1.9999999999999998
    vertex 20.936311924257154 28.394727883275767 0.0
    vertex 20.936311924257154 28.394727883275767 -1.9999999999999998
  endloop
endfacet
facet normal -0.0 -0.0 1.0
  outer loop
    vertex 7.75 0.0 0.0
    vertex 0.0 32.50000000000001 0.0
    vertex 0.0 29.21 0.0
  endloop
endfacet
facet normal -0.0 -0.0 1.0
  outer loop
    vertex 0.0 32.50000000000001 0.0
    vertex 7.75 0.0 0.0
    vertex 7.75 45.5 0.0
  endloop
endfacet
facet normal -0.0 -0.0 1.0
  outer loop
    vertex 7.75 45.5 0.0
    vertex 7.75 0.0 0.0
    vertex 10.52939941841978 28.655176093157245 0.0
  endloop
endfacet
facet normal -0.0 -0.0 1.0
  outer loop
    vertex 10.52939941841978 28.655176093157245 0.0
    vertex 7.75 0.0 0.0
    vertex 10.850886063281028 27.322890401951724 0.0
  endloop
endfacet
facet normal -0.0 -0.0 1.0
  outer loop
    vertex 10.850886063281028 27.322890401951724 0.0
    vertex 7.75 0.0 0.0
    vertex 23.749999999999996 0.0 0.0
  endloop
endfacet
facet normal -0.0 -0.0 1.0
  outer loop
    vertex 10.850886063281028 27.322890401951724 0.0
    vertex 23.749999999999996 0.0 0.0
    vertex 11.506239226761094 26.119208111257134 0.0
  endloop
endfacet
facet normal -0.0 -0.0 1.0
  outer loop
    vertex 11.506239226761094 26.119208111257134 0.0
    vertex 23.749999999999996 0.0 0.0
    vertex 12.450797673791122 25.12615818000527 0.0
  endloop
endfacet
facet normal -0.0 -0.0 1.0
  outer loop
    vertex 12.450797673791122 25.12615818000527 0.0
    vertex 23.749999999999996 0.0 0.0
    vertex 13.62019130716265 24.411415319918337 0.0
  endloop
endfacet
facet normal -0.0 -0.0 1.0
  outer loop
    vertex 13.62019130716265 24.411415319918337 0.0
    vertex 23.749999999999996 0.0 0.0
    vertex 14.934727883275762 24.023688075742847 0.0
  endloop
endfacet
facet normal -0.0 -0.0 1.0
  outer loop
    vertex 14.934727883275762 24.023688075742847 0.0
    vertex 23.749999999999996 0.0 0.0
    vertex 16.304823906842756 23.989399418419783 0.0
  endloop
endfacet
facet normal -0.0 -0.0 1.0
  outer loop
    vertex 16.304823906842756 23.989399418419783 0.0
    vertex 23.749999999999996 0.0 0.0
    vertex 17.637109598048276 24.310886063281032 0.0
  endloop
endfacet
facet normal -0.0 -0.0 1.0
  outer loop
    vertex 17.637109598048276 24.310886063281032 0.0
    vertex 23.749999999999996 0.0 0.0
    vertex 18.840791888742867 24.966239226761097 0.0
  endloop
endfacet
facet normal -0.0 -0.0 1.0
  outer loop
    vertex 18.840791888742867 24.966239226761097 0.0
    vertex 23.749999999999996 0.0 0.0
    vertex 19.833841819994735 25.910797673791123 0.0
  endloop
endfacet
facet normal -0.0 -0.0 1.0
  outer loop
    vertex 19.833841819994735 25.910797673791123 0.0
    vertex 23.749999999999996 0.0 0.0
    vertex 20.54858468008166 27.08019130716265 0.0
  endloop
endfacet
facet normal -0.0 -0.0 1.0
  outer loop
    vertex 20.54858468008166 27.08019130716265 0.0
    vertex 23.749999999999996 0.0 0.0
    vertex 20.936311924257154 28.394727883275767 0.0
  endloop
endfacet
facet normal -0.0 -0.0 1.0
  outer loop
    vertex 20.936311924257154 28.394727883275767 0.0
    vertex 23.749999999999996 0.0 0.0
    vertex 20.970600581580218 29.76482390684276 0.0
  endloop
endfacet
facet normal -0.0 -0.0 1.0
  outer loop
    vertex 7.75 45.5 0.0
    vertex 11.666158180005263 32.50920232620888 0.0
    vertex 23.749999999999996 45.5 0.0
  endloop
endfacet
facet normal -0.0 -0.0 1.0
  outer loop
    vertex 11.666158180005263 32.50920232620888 0.0
    vertex 7.75 45.5 0.0
    vertex 10.951415319918334 31.33980869283735 0.0
  endloop
endfacet
facet normal -0.0 -0.0 1.0
  outer loop
    vertex 10.951415319918334 31.33980869283735 0.0
    vertex 7.75 45.5 0.0
    vertex 10.563688075742842 30.025272116724235 0.0
  endloop
endfacet
facet normal -0.0 -0.0 1.0
  outer loop
    vertex 10.563688075742842 30.025272116724235 0.0
    vertex 7.75 45.5 0.0
    vertex 10.52939941841978 28.655176093157245 0.0
  endloop
endfacet
facet normal -0.0 -0.0 1.0
  outer loop
    vertex 23.749999999999996 45.5 0.0
    vertex 11.666158180005263 32.50920232620888 0.0
    vertex 12.659208111257133 33.453760773238905 0.0
  endloop
endfacet
facet normal -0.0 -0.0 1.0
  outer loop
    vertex 23.749999999999996 45.5 0.0
    vertex 12.659208111257133 33.453760773238905 0.0
    vertex 13.862890401951722 34.10911393671897 0.0
  endloop
endfacet
facet normal -0.0 -0.0 1.0
  outer loop
    vertex 23.749999999999996 45.5 0.0
    vertex 13.862890401951722 34.10911393671897 0.0
    vertex 15.19517609315724 34.43060058158022 0.0
  endloop
endfacet
facet normal -0.0 -0.0 1.0
  outer loop
    vertex 23.749999999999996 45.5 0.0
    vertex 15.19517609315724 34.43060058158022 0.0
    vertex 16.56527211672424 34.396311924257155 0.0
  endloop
endfacet
facet normal -0.0 -0.0 1.0
  outer loop
    vertex 23.749999999999996 45.5 0.0
    vertex 16.56527211672424 34.396311924257155 0.0
    vertex 17.87980869283735 34.00858468008167 0.0
  endloop
endfacet
facet normal -0.0 -0.0 1.0
  outer loop
    vertex 23.749999999999996 45.5 0.0
    vertex 17.87980869283735 34.00858468008167 0.0
    vertex 19.049202326208878 33.29384181999473 0.0
  endloop
endfacet
facet normal -0.0 -0.0 1.0
  outer loop
    vertex 23.749999999999996 45.5 0.0
    vertex 19.049202326208878 33.29384181999473 0.0
    vertex 19.993760773238908 32.30079188874287 0.0
  endloop
endfacet
facet normal -0.0 -0.0 1.0
  outer loop
    vertex 23.749999999999996 45.5 0.0
    vertex 19.993760773238908 32.30079188874287 0.0
    vertex 20.64911393671897 31.097109598048277 0.0
  endloop
endfacet
facet normal -0.0 -0.0 1.0
  outer loop
    vertex 23.749999999999996 45.5 0.0
    vertex 20.64911393671897 31.097109598048277 0.0
    vertex 20.970600581580218 29.76482390684276 0.0
  endloop
endfacet
facet normal -0.0 -0.0 1.0
  outer loop
    vertex 23.749999999999996 45.5 0.0
    vertex 20.970600581580218 29.76482390684276 0.0
    vertex 23.749999999999996 0.0 0.0
  endloop
endfacet
facet normal -0.0 -0.0 1.0
  outer loop
    vertex 23.749999999999996 45.5 0.0
    vertex 23.749999999999996 0.0 0.0
    vertex 31.5 29.209999999999997 0.0
  endloop
endfacet
facet normal -0.0 -0.0 1.0
  outer loop
    vertex 23.749999999999996 45.5 0.0
    vertex 31.5 29.209999999999997 0.0
    vertex 31.5 32.50000000000001 0.0
  endloop
endfacet
facet normal -0.9140161295393648 0.4056778462547334 0.0
  outer loop
    vertex 20.54858468008166 27.08019130716265 0.0
    vertex 19.833841819994735 25.910797673791123 -1.9999999999999998
    vertex 19.833841819994735 25.910797673791123 0.0
  endloop
endfacet
facet normal -0.7778746323799501 0.628419490706453 0.0
  outer loop
    vertex 19.833841819994735 25.910797673791123 -1.9999999999999998
    vertex 20.54858468008166 27.08019130716265 0.0
    vertex 20.54858468008166 27.08019130716265 -1.9999999999999998
  endloop
endfacet
facet normal -0.5887222645224516 0.8083353853788392 0.0
  outer loop
    vertex 18.840791888742867 24.966239226761097 0.0
    vertex 19.833841819994735 25.910797673791123 -1.9999999999999998
    vertex 18.840791888742867 24.966239226761097 -1.9999999999999998
  endloop
endfacet
facet normal -0.7778746323799501 0.628419490706453 0.0
  outer loop
    vertex 19.833841819994735 25.910797673791123 -1.9999999999999998
    vertex 18.840791888742867 24.966239226761097 0.0
    vertex 19.833841819994735 25.910797673791123 0.0
  endloop
endfacet
facet normal -0.35944944724729067 0.9331645593750426 0.0
  outer loop
    vertex 17.637109598048276 24.310886063281032 0.0
    vertex 18.840791888742867 24.966239226761097 -1.9999999999999998
    vertex 17.637109598048276 24.310886063281032 -1.9999999999999998
  endloop
endfacet
facet normal -0.5887222645224516 0.8083353853788392 0.0
  outer loop
    vertex 18.840791888742867 24.966239226761097 -1.9999999999999998
    vertex 17.637109598048276 24.310886063281032 0.0
    vertex 18.840791888742867 24.966239226761097 0.0
  endloop
endfacet
facet normal -0.10568074416052503 0.9944001107771848 0.0
  outer loop
    vertex 16.304823906842756 23.989399418419783 0.0
    vertex 17.637109598048276 24.310886063281032 -1.9999999999999998
    vertex 16.304823906842756 23.989399418419783 -1.9999999999999998
  endloop
endfacet
facet normal -0.35944944724729067 0.9331645593750426 0.0
  outer loop
    vertex 17.637109598048276 24.310886063281032 -1.9999999999999998
    vertex 16.304823906842756 23.989399418419783 0.0
    vertex 17.637109598048276 24.310886063281032 0.0
  endloop
endfacet
facet normal 0.15528992699509206 0.9878689379537443 0.0
  outer loop
    vertex 14.934727883275762 24.023688075742847 0.0
    vertex 16.304823906842756 23.989399418419783 -1.9999999999999998
    vertex 14.934727883275762 24.023688075742847 -1.9999999999999998
  endloop
endfacet
facet normal -0.10568074416052503 0.9944001107771848 0.0
  outer loop
    vertex 16.304823906842756 23.989399418419783 -1.9999999999999998
    vertex 14.934727883275762 24.023688075742847 0.0
    vertex 16.304823906842756 23.989399418419783 0.0
  endloop
endfacet
facet normal 0.40567784625473347 0.9140161295393647 0.0
  outer loop
    vertex 13.62019130716265 24.411415319918337 0.0
    vertex 14.934727883275762 24.023688075742847 -1.9999999999999998
    vertex 13.62019130716265 24.411415319918337 -1.9999999999999998
  endloop
endfacet
facet normal 0.15528992699509206 0.9878689379537443 0.0
  outer loop
    vertex 14.934727883275762 24.023688075742847 -1.9999999999999998
    vertex 13.62019130716265 24.411415319918337 0.0
    vertex 14.934727883275762 24.023688075742847 0.0
  endloop
endfacet
facet normal 0.6284194907064539 0.7778746323799492 0.0
  outer loop
    vertex 12.450797673791122 25.12615818000527 0.0
    vertex 13.62019130716265 24.411415319918337 -1.9999999999999998
    vertex 12.450797673791122 25.12615818000527 -1.9999999999999998
  endloop
endfacet
facet normal 0.40567784625473347 0.9140161295393647 0.0
  outer loop
    vertex 13.62019130716265 24.411415319918337 -1.9999999999999998
    vertex 12.450797673791122 25.12615818000527 0.0
    vertex 13.62019130716265 24.411415319918337 0.0
  endloop
endfacet
facet normal 0.8083353853788392 0.5887222645224517 0.0
  outer loop
    vertex 11.506239226761094 26.119208111257134 -1.9999999999999998
    vertex 12.450797673791122 25.12615818000527 0.0
    vertex 12.450797673791122 25.12615818000527 -1.9999999999999998
  endloop
endfacet
facet normal 0.6284194907064539 0.7778746323799492 0.0
  outer loop
    vertex 12.450797673791122 25.12615818000527 0.0
    vertex 11.506239226761094 26.119208111257134 -1.9999999999999998
    vertex 11.506239226761094 26.119208111257134 0.0
  endloop
endfacet
facet normal 0.9331645593750424 0.35944944724729105 0.0
  outer loop
    vertex 10.850886063281028 27.322890401951724 -1.9999999999999998
    vertex 11.506239226761094 26.119208111257134 0.0
    vertex 11.506239226761094 26.119208111257134 -1.9999999999999998
  endloop
endfacet
facet normal 0.8083353853788392 0.5887222645224517 0.0
  outer loop
    vertex 11.506239226761094 26.119208111257134 0.0
    vertex 10.850886063281028 27.322890401951724 -1.9999999999999998
    vertex 10.850886063281028 27.322890401951724 0.0
  endloop
endfacet
facet normal 0.9944001107771848 0.10568074416052553 0.0
  outer loop
    vertex 10.52939941841978 28.655176093157245 -1.9999999999999998
    vertex 10.850886063281028 27.322890401951724 0.0
    vertex 10.850886063281028 27.322890401951724 -1.9999999999999998
  endloop
endfacet
facet normal 0.9331645593750424 0.35944944724729105 0.0
  outer loop
    vertex 10.850886063281028 27.322890401951724 0.0
    vertex 10.52939941841978 28.655176093157245 -1.9999999999999998
    vertex 10.52939941841978 28.655176093157245 0.0
  endloop
endfacet
facet normal 0.9878689379537445 -0.15528992699509178 0.0
  outer loop
    vertex 10.563688075742842 30.025272116724235 -1.9999999999999998
    vertex 10.52939941841978 28.655176093157245 0.0
    vertex 10.52939941841978 28.655176093157245 -1.9999999999999998
  endloop
endfacet
facet normal 0.9944001107771848 0.10568074416052553 0.0
  outer loop
    vertex 10.52939941841978 28.655176093157245 0.0
    vertex 10.563688075742842 30.025272116724235 -1.9999999999999998
    vertex 10.563688075742842 30.025272116724235 0.0
  endloop
endfacet
facet normal 0.9140161295393647 -0.4056778462547334 0.0
  outer loop
    vertex 10.951415319918334 31.33980869283735 -1.9999999999999998
    vertex 10.563688075742842 30.025272116724235 0.0
    vertex 10.563688075742842 30.025272116724235 -1.9999999999999998
  endloop
endfacet
facet normal 0.9878689379537445 -0.15528992699509178 0.0
  outer loop
    vertex 10.563688075742842 30.025272116724235 0.0
    vertex 10.951415319918334 31.33980869283735 -1.9999999999999998
    vertex 10.951415319918334 31.33980869283735 0.0
  endloop
endfacet
facet normal 0.7778746323799492 -0.6284194907064538 0.0
  outer loop
    vertex 11.666158180005263 32.50920232620888 -1.9999999999999998
    vertex 10.951415319918334 31.33980869283735 0.0
    vertex 10.951415319918334 31.33980869283735 -1.9999999999999998
  endloop
endfacet
facet normal 0.9140161295393647 -0.4056778462547334 0.0
  outer loop
    vertex 10.951415319918334 31.33980869283735 0.0
    vertex 11.666158180005263 32.50920232620888 -1.9999999999999998
    vertex 11.666158180005263 32.50920232620888 0.0
  endloop
endfacet
facet normal 0.5887222645224506 -0.80833538537884 0.0
  outer loop
    vertex 12.659208111257133 33.453760773238905 0.0
    vertex 11.666158180005263 32.50920232620888 -1.9999999999999998
    vertex 12.659208111257133 33.453760773238905 -1.9999999999999998
  endloop
endfacet
facet normal 0.7778746323799492 -0.6284194907064538 0.0
  outer loop
    vertex 11.666158180005263 32.50920232620888 -1.9999999999999998
    vertex 12.659208111257133 33.453760773238905 0.0
    vertex 11.666158180005263 32.50920232620888 0.0
  endloop
endfacet
facet normal 0.3594494472472909 -0.9331645593750423 0.0
  outer loop
    vertex 13.862890401951722 34.10911393671897 0.0
    vertex 12.659208111257133 33.453760773238905 -1.9999999999999998
    vertex 13.862890401951722 34.10911393671897 -1.9999999999999998
  endloop
endfacet
facet normal 0.5887222645224506 -0.80833538537884 0.0
  outer loop
    vertex 12.659208111257133 33.453760773238905 -1.9999999999999998
    vertex 13.862890401951722 34.10911393671897 0.0
    vertex 12.659208111257133 33.453760773238905 0.0
  endloop
endfacet
facet normal -0.8589469742085631 0.5120645423166437 0.0
  outer loop
    vertex 7.75 45.5 0.0
    vertex 0.0 32.50000000000001 -1.9999999999999998
    vertex 0.0 32.50000000000001 0.0
  endloop
endfacet
facet normal -0.8589469742085631 0.5120645423166437 0.0
  outer loop
    vertex 0.0 32.50000000000001 -1.9999999999999998
    vertex 7.75 45.5 0.0
    vertex 7.75 45.5 -1.9999999999999998
  endloop
endfacet
facet normal -1.0 0.0 0.0
  outer loop
    vertex 0.0 32.50000000000001 0.0
    vertex 0.0 29.21 -1.9999999999999998
    vertex 0.0 29.21 0.0
  endloop
endfacet
facet normal -1.0 0.0 0.0
  outer loop
    vertex 0.0 29.21 -1.9999999999999998
    vertex 0.0 32.50000000000001 0.0
    vertex 0.0 32.50000000000001 -1.9999999999999998
  endloop
endfacet
facet normal -0.9665582101553473 -0.25644731697035056 -0.0
  outer loop
    vertex 0.0 29.21 0.0
    vertex 7.75 0.0 -1.9999999999999998
    vertex 7.75 0.0 0.0
  endloop
endfacet
facet normal -0.9665582101553473 -0.25644731697035056 -0.0
  outer loop
    vertex 7.75 0.0 -1.9999999999999998
    vertex 0.0 29.21 0.0
    vertex 0.0 29.21 -1.9999999999999998
  endloop
endfacet
facet normal 0.0 -1.0 0.0
  outer loop
    vertex 23.749999999999996 0.0 0.0
    vertex 7.75 0.0 -1.9999999999999998
    vertex 23.749999999999996 0.0 -1.9999999999999998
  endloop
endfacet
facet normal 0.0 -1.0 0.0
  outer loop
    vertex 7.75 0.0 -1.9999999999999998
    vertex 23.749999999999996 0.0 0.0
    vertex 7.75 0.0 0.0
  endloop
endfacet
facet normal 0.9665582101553473 -0.2564473169703507 -0.0
  outer loop
    vertex 31.5 29.209999999999997 -1.9999999999999998
    vertex 23.749999999999996 0.0 0.0
    vertex 23.749999999999996 0.0 -1.9999999999999998
  endloop
endfacet
facet normal 0.9665582101553473 -0.2564473169703507 -0.0
  outer loop
    vertex 23.749999999999996 0.0 0.0
    vertex 31.5 29.209999999999997 -1.9999999999999998
    vertex 31.5 29.209999999999997 0.0
  endloop
endfacet
facet normal 1.0 0.0 0.0
  outer loop
    vertex 31.5 32.50000000000001 -1.9999999999999998
    vertex 31.5 29.209999999999997 0.0
    vertex 31.5 29.209999999999997 -1.9999999999999998
  endloop
endfacet
facet normal 1.0 0.0 0.0
  outer loop
    vertex 31.5 29.209999999999997 0.0
    vertex 31.5 32.50000000000001 -1.9999999999999998
    vertex 31.5 32.50000000000001 0.0
  endloop
endfacet
facet normal 0.858946974208563 0.5120645423166438 0.0
  outer loop
    vertex 23.749999999999996 45.5 -1.9999999999999998
    vertex 31.5 32.50000000000001 0.0
    vertex 31.5 32.50000000000001 -1.9999999999999998
  endloop
endfacet
facet normal 0.858946974208563 0.5120645423166438 0.0
  outer loop
    vertex 31.5 32.50000000000001 0.0
    vertex 23.749999999999996 45.5 -1.9999999999999998
    vertex 23.749999999999996 45.5 0.0
  endloop
endfacet
facet normal -0.0 1.0 0.0
  outer loop
    vertex 7.75 45.5 0.0
    vertex 23.749999999999996 45.5 -1.9999999999999998
    vertex 7.75 45.5 -1.9999999999999998
  endloop
endfacet
facet normal -0.0 1.0 0.0
  outer loop
    vertex 23.749999999999996 45.5 -1.9999999999999998
    vertex 7.75 45.5 0.0
    vertex 23.749999999999996 45.5 0.0
  endloop
endfacet
facet normal 0.0 0.0 -1.0
  outer loop
    vertex 7.75 45.5 -1.9999999999999998
    vertex 0.0 29.21 -1.9999999999999998
    vertex 0.0 32.50000000000001 -1.9999999999999998
  endloop
endfacet
facet normal 0.0 0.0 -1.0
  outer loop
    vertex 0.0 29.21 -1.9999999999999998
    vertex 7.75 45.5 -1.9999999999999998
    vertex 7.75 0.0 -1.9999999999999998
  endloop
endfacet
facet normal 0.0 0.0 -1.0
  outer loop
    vertex 7.75 0.0 -1.9999999999999998
    vertex 7.75 45.5 -1.9999999999999998
    vertex 10.563688075742842 30.025272116724235 -1.9999999999999998
  endloop
endfacet
facet normal 0.0 0.0 -1.0
  outer loop
    vertex 10.563688075742842 30.025272116724235 -1.9999999999999998
    vertex 7.75 45.5 -1.9999999999999998
    vertex 10.951415319918334 31.33980869283735 -1.9999999999999998
  endloop
endfacet
facet normal 0.0 0.0 -1.0
  outer loop
    vertex 10.951415319918334 31.33980869283735 -1.9999999999999998
    vertex 7.75 45.5 -1.9999999999999998
    vertex 11.666158180005263 32.50920232620888 -1.9999999999999998
  endloop
endfacet
facet normal 0.0 0.0 -1.0
  outer loop
    vertex 11.666158180005263 32.50920232620888 -1.9999999999999998
    vertex 7.75 45.5 -1.9999999999999998
    vertex 23.749999999999996 45.5 -1.9999999999999998
  endloop
endfacet
facet normal 0.0 0.0 -1.0
  outer loop
    vertex 7.75 0.0 -1.9999999999999998
    vertex 10.563688075742842 30.025272116724235 -1.9999999999999998
    vertex 10.52939941841978 28.655176093157245 -1.9999999999999998
  endloop
endfacet
facet normal 0.0 0.0 -1.0
  outer loop
    vertex 11.666158180005263 32.50920232620888 -1.9999999999999998
    vertex 23.749999999999996 45.5 -1.9999999999999998
    vertex 12.659208111257133 33.453760773238905 -1.9999999999999998
  endloop
endfacet
facet normal 0.0 0.0 -1.0
  outer loop
    vertex 12.659208111257133 33.453760773238905 -1.9999999999999998
    vertex 23.749999999999996 45.5 -1.9999999999999998
    vertex 13.862890401951722 34.10911393671897 -1.9999999999999998
  endloop
endfacet
facet normal 0.0 0.0 -1.0
  outer loop
    vertex 13.862890401951722 34.10911393671897 -1.9999999999999998
    vertex 23.749999999999996 45.5 -1.9999999999999998
    vertex 15.19517609315724 34.43060058158022 -1.9999999999999998
  endloop
endfacet
facet normal 0.0 0.0 -1.0
  outer loop
    vertex 15.19517609315724 34.43060058158022 -1.9999999999999998
    vertex 23.749999999999996 45.5 -1.9999999999999998
    vertex 16.56527211672424 34.396311924257155 -1.9999999999999998
  endloop
endfacet
facet normal 0.0 0.0 -1.0
  outer loop
    vertex 16.56527211672424 34.396311924257155 -1.9999999999999998
    vertex 23.749999999999996 45.5 -1.9999999999999998
    vertex 17.87980869283735 34.00858468008167 -1.9999999999999998
  endloop
endfacet
facet normal 0.0 0.0 -1.0
  outer loop
    vertex 17.87980869283735 34.00858468008167 -1.9999999999999998
    vertex 23.749999999999996 45.5 -1.9999999999999998
    vertex 19.049202326208878 33.29384181999473 -1.9999999999999998
  endloop
endfacet
facet normal 0.0 0.0 -1.0
  outer loop
    vertex 19.049202326208878 33.29384181999473 -1.9999999999999998
    vertex 23.749999999999996 45.5 -1.9999999999999998
    vertex 19.993760773238908 32.30079188874287 -1.9999999999999998
  endloop
endfacet
facet normal 0.0 0.0 -1.0
  outer loop
    vertex 19.993760773238908 32.30079188874287 -1.9999999999999998
    vertex 23.749999999999996 45.5 -1.9999999999999998
    vertex 20.64911393671897 31.097109598048277 -1.9999999999999998
  endloop
endfacet
facet normal 0.0 0.0 -1.0
  outer loop
    vertex 20.64911393671897 31.097109598048277 -1.9999999999999998
    vertex 23.749999999999996 45.5 -1.9999999999999998
    vertex 20.970600581580218 29.76482390684276 -1.9999999999999998
  endloop
endfacet
facet normal 0.0 0.0 -1.0
  outer loop
    vertex 7.75 0.0 -1.9999999999999998
    vertex 10.850886063281028 27.322890401951724 -1.9999999999999998
    vertex 23.749999999999996 0.0 -1.9999999999999998
  endloop
endfacet
facet normal 0.0 0.0 -1.0
  outer loop
    vertex 10.850886063281028 27.322890401951724 -1.9999999999999998
    vertex 7.75 0.0 -1.9999999999999998
    vertex 10.52939941841978 28.655176093157245 -1.9999999999999998
  endloop
endfacet
facet normal 0.0 0.0 -1.0
  outer loop
    vertex 23.749999999999996 0.0 -1.9999999999999998
    vertex 10.850886063281028 27.322890401951724 -1.9999999999999998
    vertex 11.506239226761094 26.119208111257134 -1.9999999999999998
  endloop
endfacet
facet normal 0.0 0.0 -1.0
  outer loop
    vertex 23.749999999999996 0.0 -1.9999999999999998
    vertex 11.506239226761094 26.119208111257134 -1.9999999999999998
    vertex 12.450797673791122 25.12615818000527 -1.9999999999999998
  endloop
endfacet
facet normal 0.0 0.0 -1.0
  outer loop
    vertex 23.749999999999996 0.0 -1.9999999999999998
    vertex 12.450797673791122 25.12615818000527 -1.9999999999999998
    vertex 13.62019130716265 24.411415319918337 -1.9999999999999998
  endloop
endfacet
facet normal 0.0 0.0 -1.0
  outer loop
    vertex 23.749999999999996 0.0 -1.9999999999999998
    vertex 13.62019130716265 24.411415319918337 -1.9999999999999998
    vertex 14.934727883275762 24.023688075742847 -1.9999999999999998
  endloop
endfacet
facet normal 0.0 0.0 -1.0
  outer loop
    vertex 23.749999999999996 0.0 -1.9999999999999998
    vertex 14.934727883275762 24.023688075742847 -1.9999999999999998
    vertex 16.304823906842756 23.989399418419783 -1.9999999999999998
  endloop
endfacet
facet normal 0.0 0.0 -1.0
  outer loop
    vertex 23.749999999999996 0.0 -1.9999999999999998
    vertex 16.304823906842756 23.989399418419783 -1.9999999999999998
    vertex 17.637109598048276 24.310886063281032 -1.9999999999999998
  endloop
endfacet
facet normal 0.0 0.0 -1.0
  outer loop
    vertex 23.749999999999996 0.0 -1.9999999999999998
    vertex 17.637109598048276 24.310886063281032 -1.9999999999999998
    vertex 18.840791888742867 24.966239226761097 -1.9999999999999998
  endloop
endfacet
facet normal 0.0 0.0 -1.0
  outer loop
    vertex 23.749999999999996 0.0 -1.9999999999999998
    vertex 18.840791888742867 24.966239226761097 -1.9999999999999998
    vertex 19.833841819994735 25.910797673791123 -1.9999999999999998
  endloop
endfacet
facet normal 0.0 0.0 -1.0
  outer loop
    vertex 23.749999999999996 0.0 -1.9999999999999998
    vertex 19.833841819994735 25.910797673791123 -1.9999999999999998
    vertex 20.54858468008166 27.08019130716265 -1.9999999999999998
  endloop
endfacet
facet normal 0.0 0.0 -1.0
  outer loop
    vertex 23.749999999999996 0.0 -1.9999999999999998
    vertex 20.54858468008166 27.08019130716265 -1.9999999999999998
    vertex 20.936311924257154 28.394727883275767 -1.9999999999999998
  endloop
endfacet
facet normal 0.0 0.0 -1.0
  outer loop
    vertex 23.749999999999996 0.0 -1.9999999999999998
    vertex 20.936311924257154 28.394727883275767 -1.9999999999999998
    vertex 20.970600581580218 29.76482390684276 -1.9999999999999998
  endloop
endfacet
facet normal 0.0 0.0 -1.0
  outer loop
    vertex 23.749999999999996 0.0 -1.9999999999999998
    vertex 20.970600581580218 29.76482390684276 -1.9999999999999998
    vertex 23.749999999999996 45.5 -1.9999999999999998
  endloop
endfacet
facet normal 0.0 0.0 -1.0
  outer loop
    vertex 23.749999999999996 0.0 -1.9999999999999998
    vertex 23.749999999999996 45.5 -1.9999999999999998
    vertex 31.5 32.50000000000001 -1.9999999999999998
  endloop
endfacet
facet normal 0.0 0.0 -1.0
  outer loop
    vertex 23.749999999999996 0.0 -1.9999999999999998
    vertex 31.5 32.50000000000001 -1.9999999999999998
    vertex 31.5 29.209999999999997 -1.9999999999999998
  endloop
endfacet
endsolid Untitled-56be9963
