solid Suport 2299mah 3s Lipo Battery
facet normal 0.0 0.0 -1.0
  outer loop
    vertex 161.0 52.99999999999999 0.0
    vertex -18.0 -3.0 0.0
    vertex -18.0 52.99999999999999 0.0
  endloop
endfacet
facet normal 0.0 0.0 -1.0
  outer loop
    vertex -18.0 -3.0 0.0
    vertex 161.0 52.99999999999999 0.0
    vertex 161.0 -3.0 0.0
  endloop
endfacet
facet normal 1.9280534223222134e-17 -1.0 8.968659150598819e-17
  outer loop
    vertex 114.99999999999999 -3.0 19.0
    vertex 100.0 -3.0 3.9999999999999996
    vertex 114.99999999999999 -3.0 3.9999999999999996
  endloop
endfacet
facet normal 1.9280534223222134e-17 -1.0 8.968659150598819e-17
  outer loop
    vertex 100.0 -3.0 3.9999999999999996
    vertex 114.99999999999999 -3.0 19.0
    vertex 100.0 -3.000000000000003 7.999999999999999
  endloop
endfacet
facet normal 1.9280534223222134e-17 -1.0 8.968659150598819e-17
  outer loop
    vertex 100.0 -3.000000000000003 7.999999999999999
    vertex 114.99999999999999 -3.0 19.0
    vertex 79.99999999999999 -3.000000000000003 7.999999999999999
  endloop
endfacet
facet normal 1.9280534223222134e-17 -1.0 8.968659150598819e-17
  outer loop
    vertex 79.99999999999999 -3.000000000000003 7.999999999999999
    vertex -3.0 -3.0000000000000058 3.9999999999999996
    vertex 79.99999999999999 -3.000000000000003 3.9999999999999996
  endloop
endfacet
facet normal 1.9280534223222134e-17 -1.0 8.968659150598819e-17
  outer loop
    vertex -3.0 -3.0000000000000058 3.9999999999999996
    vertex 79.99999999999999 -3.000000000000003 7.999999999999999
    vertex 15.0 -3.0 19.0
  endloop
endfacet
facet normal 1.9280534223222134e-17 -1.0 8.968659150598819e-17
  outer loop
    vertex -3.0 -3.0000000000000058 3.9999999999999996
    vertex 15.0 -3.0 19.0
    vertex -3.0 -3.0 37.999999999999986
  endloop
endfacet
facet normal 1.9280534223222134e-17 -1.0 8.968659150598819e-17
  outer loop
    vertex 15.0 -3.0 19.0
    vertex 79.99999999999999 -3.000000000000003 7.999999999999999
    vertex 114.99999999999999 -3.0 19.0
  endloop
endfacet
facet normal 1.9280534223222134e-17 -1.0 8.968659150598819e-17
  outer loop
    vertex -3.0 -3.0 37.999999999999986
    vertex 15.0 -3.0 19.0
    vertex 15.0 -3.0 37.999999999999986
  endloop
endfacet
facet normal 1.9280534223222134e-17 -1.0 8.968659150598819e-17
  outer loop
    vertex 161.0 -3.0 3.9999999999999996
    vertex -18.0 -3.0 0.0
    vertex 161.0 -3.0 0.0
  endloop
endfacet
facet normal 1.9280534223222134e-17 -1.0 8.968659150598819e-17
  outer loop
    vertex -18.0 -3.0 0.0
    vertex 161.0 -3.0 3.9999999999999996
    vertex -18.0 -3.0000000000000058 3.9999999999999996
  endloop
endfacet
facet normal 1.9280534223222134e-17 -1.0 8.968659150598819e-17
  outer loop
    vertex -18.0 -3.0000000000000058 3.9999999999999996
    vertex 161.0 -3.0 3.9999999999999996
    vertex 114.99999999999999 -3.0 3.9999999999999996
  endloop
endfacet
facet normal 1.9280534223222134e-17 -1.0 8.968659150598819e-17
  outer loop
    vertex -18.0 -3.0000000000000058 3.9999999999999996
    vertex 114.99999999999999 -3.0 3.9999999999999996
    vertex 100.0 -3.0 3.9999999999999996
  endloop
endfacet
facet normal 1.9280534223222134e-17 -1.0 8.968659150598819e-17
  outer loop
    vertex -18.0 -3.0000000000000058 3.9999999999999996
    vertex 100.0 -3.0 3.9999999999999996
    vertex 79.99999999999999 -3.000000000000003 3.9999999999999996
  endloop
endfacet
facet normal 1.9280534223222134e-17 -1.0 8.968659150598819e-17
  outer loop
    vertex -18.0 -3.0000000000000058 3.9999999999999996
    vertex 79.99999999999999 -3.000000000000003 3.9999999999999996
    vertex -3.0 -3.0000000000000058 3.9999999999999996
  endloop
endfacet
facet normal -0.0 1.0 -0.0
  outer loop
    vertex -3.0 52.99999999999999 3.9999999999999996
    vertex 14.999999999999998 52.99999999999999 19.0
    vertex 79.99999999999999 52.99999999999999 3.9999999999999996
  endloop
endfacet
facet normal -0.0 1.0 -0.0
  outer loop
    vertex 14.999999999999998 52.99999999999999 19.0
    vertex -3.0 52.99999999999999 3.9999999999999996
    vertex -3.0 52.99999999999999 37.999999999999986
  endloop
endfacet
facet normal -0.0 1.0 -0.0
  outer loop
    vertex 79.99999999999999 52.99999999999999 3.9999999999999996
    vertex 14.999999999999998 52.99999999999999 19.0
    vertex 79.99999999999999 52.99999999999999 8.0
  endloop
endfacet
facet normal -0.0 1.0 -0.0
  outer loop
    vertex 79.99999999999999 52.99999999999999 8.0
    vertex 14.999999999999998 52.99999999999999 19.0
    vertex 100.0 52.99999999999999 8.0
  endloop
endfacet
facet normal -0.0 1.0 -0.0
  outer loop
    vertex 14.999999999999998 52.99999999999999 19.0
    vertex -3.0 52.99999999999999 37.999999999999986
    vertex 14.999999999999998 52.99999999999999 37.999999999999986
  endloop
endfacet
facet normal -0.0 1.0 -0.0
  outer loop
    vertex 100.0 52.99999999999999 8.0
    vertex 114.99999999999999 52.99999999999999 3.9999999999999996
    vertex 100.0 52.99999999999999 3.9999999999999996
  endloop
endfacet
facet normal -0.0 1.0 -0.0
  outer loop
    vertex 114.99999999999999 52.99999999999999 3.9999999999999996
    vertex 100.0 52.99999999999999 8.0
    vertex 114.99999999999999 52.99999999999999 19.0
  endloop
endfacet
facet normal -0.0 1.0 -0.0
  outer loop
    vertex 114.99999999999999 52.99999999999999 19.0
    vertex 100.0 52.99999999999999 8.0
    vertex 14.999999999999998 52.99999999999999 19.0
  endloop
endfacet
facet normal -0.0 1.0 -0.0
  outer loop
    vertex -18.0 52.99999999999999 3.9999999999999996
    vertex 161.0 52.99999999999999 0.0
    vertex -18.0 52.99999999999999 0.0
  endloop
endfacet
facet normal -0.0 1.0 -0.0
  outer loop
    vertex 161.0 52.99999999999999 0.0
    vertex -18.0 52.99999999999999 3.9999999999999996
    vertex 161.0 52.99999999999999 3.9999999999999996
  endloop
endfacet
facet normal -0.0 1.0 -0.0
  outer loop
    vertex 161.0 52.99999999999999 3.9999999999999996
    vertex -18.0 52.99999999999999 3.9999999999999996
    vertex -3.0 52.99999999999999 3.9999999999999996
  endloop
endfacet
facet normal -0.0 1.0 -0.0
  outer loop
    vertex 161.0 52.99999999999999 3.9999999999999996
    vertex -3.0 52.99999999999999 3.9999999999999996
    vertex 79.99999999999999 52.99999999999999 3.9999999999999996
  endloop
endfacet
facet normal -0.0 1.0 -0.0
  outer loop
    vertex 161.0 52.99999999999999 3.9999999999999996
    vertex 79.99999999999999 52.99999999999999 3.9999999999999996
    vertex 100.0 52.99999999999999 3.9999999999999996
  endloop
endfacet
facet normal -0.0 1.0 -0.0
  outer loop
    vertex 161.0 52.99999999999999 3.9999999999999996
    vertex 100.0 52.99999999999999 3.9999999999999996
    vertex 114.99999999999999 52.99999999999999 3.9999999999999996
  endloop
endfacet
facet normal 1.0 -0.0 -0.0
  outer loop
    vertex 146.0 39.99999999999999 3.9999999999999996
    vertex 146.0 9.999999999999998 19.0
    vertex 146.0 9.999999999999998 3.9999999999999996
  endloop
endfacet
facet normal 1.0 -0.0 -0.0
  outer loop
    vertex 146.0 9.999999999999998 19.0
    vertex 146.0 39.99999999999999 3.9999999999999996
    vertex 146.0 39.99999999999999 19.0
  endloop
endfacet
facet normal 1.0 8.327591634561289e-17 1.1313047472042411e-17
  outer loop
    vertex 14.999999999999998 52.99999999999999 19.0
    vertex 14.999999999999995 50.0 34.0
    vertex 14.999999999999995 50.0 19.0
  endloop
endfacet
facet normal 1.0 8.327591634561289e-17 1.1313047472042411e-17
  outer loop
    vertex 15.0 0.0 19.0
    vertex 15.0 -3.0 37.999999999999986
    vertex 15.0 -3.0 19.0
  endloop
endfacet
facet normal 1.0 8.327591634561289e-17 1.1313047472042411e-17
  outer loop
    vertex 15.0 -3.0 37.999999999999986
    vertex 15.0 0.0 19.0
    vertex 15.0 0.0 34.0
  endloop
endfacet
facet normal 1.0 8.327591634561289e-17 1.1313047472042411e-17
  outer loop
    vertex 15.0 -3.0 37.999999999999986
    vertex 15.0 0.0 34.0
    vertex 14.999999999999998 52.99999999999999 37.999999999999986
  endloop
endfacet
facet normal 1.0 8.327591634561289e-17 1.1313047472042411e-17
  outer loop
    vertex 14.999999999999998 52.99999999999999 37.999999999999986
    vertex 15.0 0.0 34.0
    vertex 14.999999999999995 50.0 34.0
  endloop
endfacet
facet normal 1.0 8.327591634561289e-17 1.1313047472042411e-17
  outer loop
    vertex 14.999999999999998 52.99999999999999 37.999999999999986
    vertex 14.999999999999995 50.0 34.0
    vertex 14.999999999999998 52.99999999999999 19.0
  endloop
endfacet
facet normal 0.0 0.0 1.0
  outer loop
    vertex 114.99999999999999 50.0 19.0
    vertex 14.999999999999998 52.99999999999999 19.0
    vertex 14.999999999999995 50.0 19.0
  endloop
endfacet
facet normal 0.0 0.0 1.0
  outer loop
    vertex 14.999999999999998 52.99999999999999 19.0
    vertex 114.99999999999999 50.0 19.0
    vertex 114.99999999999999 52.99999999999999 19.0
  endloop
endfacet
facet normal 4.7849565331710774e-17 -1.0 -1.3508826134792849e-16
  outer loop
    vertex 114.99999999999999 50.0 19.0
    vertex 100.0 50.00000000000001 3.9999999999999996
    vertex 114.99999999999999 50.0 3.9999999999999996
  endloop
endfacet
facet normal 4.7849565331710774e-17 -1.0 -1.3508826134792849e-16
  outer loop
    vertex 100.0 50.00000000000001 3.9999999999999996
    vertex 114.99999999999999 50.0 19.0
    vertex 100.0 50.00000000000001 8.0
  endloop
endfacet
facet normal 4.7849565331710774e-17 -1.0 -1.3508826134792849e-16
  outer loop
    vertex 100.0 50.00000000000001 8.0
    vertex 114.99999999999999 50.0 19.0
    vertex 79.99999999999999 50.00000000000001 8.0
  endloop
endfacet
facet normal 4.7849565331710774e-17 -1.0 -1.3508826134792849e-16
  outer loop
    vertex 79.99999999999999 50.00000000000001 8.0
    vertex 0.0 50.0 3.9999999999999996
    vertex 79.99999999999999 50.00000000000001 3.9999999999999996
  endloop
endfacet
facet normal 4.7849565331710774e-17 -1.0 -1.3508826134792849e-16
  outer loop
    vertex 0.0 50.0 3.9999999999999996
    vertex 79.99999999999999 50.00000000000001 8.0
    vertex 14.999999999999995 50.0 19.0
  endloop
endfacet
facet normal 4.7849565331710774e-17 -1.0 -1.3508826134792849e-16
  outer loop
    vertex 0.0 50.0 3.9999999999999996
    vertex 14.999999999999995 50.0 19.0
    vertex 0.0 50.0 34.0
  endloop
endfacet
facet normal 4.7849565331710774e-17 -1.0 -1.3508826134792849e-16
  outer loop
    vertex 14.999999999999995 50.0 19.0
    vertex 79.99999999999999 50.00000000000001 8.0
    vertex 114.99999999999999 50.0 19.0
  endloop
endfacet
facet normal 4.7849565331710774e-17 -1.0 -1.3508826134792849e-16
  outer loop
    vertex 0.0 50.0 34.0
    vertex 14.999999999999995 50.0 19.0
    vertex 14.999999999999995 50.0 34.0
  endloop
endfacet
facet normal 0.9999999999999999 -0.0 0.0
  outer loop
    vertex 114.99999999999999 52.99999999999999 3.9999999999999996
    vertex 114.99999999999999 50.0 19.0
    vertex 114.99999999999999 50.0 3.9999999999999996
  endloop
endfacet
facet normal 0.9999999999999999 -0.0 0.0
  outer loop
    vertex 114.99999999999999 50.0 19.0
    vertex 114.99999999999999 52.99999999999999 3.9999999999999996
    vertex 114.99999999999999 52.99999999999999 19.0
  endloop
endfacet
facet normal 0.0 0.0 1.0
  outer loop
    vertex 114.99999999999999 -3.0 19.0
    vertex 15.0 0.0 19.0
    vertex 15.0 -3.0 19.0
  endloop
endfacet
facet normal 0.0 0.0 1.0
  outer loop
    vertex 15.0 0.0 19.0
    vertex 114.99999999999999 -3.0 19.0
    vertex 114.99999999999999 0.0 19.0
  endloop
endfacet
facet normal 0.9999999999999999 -0.0 0.0
  outer loop
    vertex 114.99999999999999 0.0 3.9999999999999996
    vertex 114.99999999999999 -3.0 19.0
    vertex 114.99999999999999 -3.0 3.9999999999999996
  endloop
endfacet
facet normal 0.9999999999999999 -0.0 0.0
  outer loop
    vertex 114.99999999999999 -3.0 19.0
    vertex 114.99999999999999 0.0 3.9999999999999996
    vertex 114.99999999999999 0.0 19.0
  endloop
endfacet
facet normal -2.033606526597709e-16 1.0 5.741251107286958e-16
  outer loop
    vertex 0.0 0.0 3.9999999999999996
    vertex 15.0 0.0 19.0
    vertex 80.00000000000003 4.7939430203314254e-14 4.000000000000001
  endloop
endfacet
facet normal -2.033606526597709e-16 1.0 5.741251107286958e-16
  outer loop
    vertex 15.0 0.0 19.0
    vertex 0.0 0.0 3.9999999999999996
    vertex 0.0 0.0 34.0
  endloop
endfacet
facet normal -2.033606526597709e-16 1.0 5.741251107286958e-16
  outer loop
    vertex 80.00000000000003 4.7939430203314254e-14 4.000000000000001
    vertex 15.0 0.0 19.0
    vertex 80.00000000000003 4.7939430203314254e-14 7.999999999999999
  endloop
endfacet
facet normal -2.033606526597709e-16 1.0 5.741251107286958e-16
  outer loop
    vertex 80.00000000000003 4.7939430203314254e-14 7.999999999999999
    vertex 15.0 0.0 19.0
    vertex 100.00000000000003 4.7939430203314254e-14 7.999999999999999
  endloop
endfacet
facet normal -2.033606526597709e-16 1.0 5.741251107286958e-16
  outer loop
    vertex 15.0 0.0 19.0
    vertex 0.0 0.0 34.0
    vertex 15.0 0.0 34.0
  endloop
endfacet
facet normal -2.033606526597709e-16 1.0 5.741251107286958e-16
  outer loop
    vertex 100.00000000000003 4.7939430203314254e-14 4.000000000000001
    vertex 114.99999999999999 0.0 19.0
    vertex 114.99999999999999 0.0 3.9999999999999996
  endloop
endfacet
facet normal -2.033606526597709e-16 1.0 5.741251107286958e-16
  outer loop
    vertex 114.99999999999999 0.0 19.0
    vertex 100.00000000000003 4.7939430203314254e-14 4.000000000000001
    vertex 100.00000000000003 4.7939430203314254e-14 7.999999999999999
  endloop
endfacet
facet normal -2.033606526597709e-16 1.0 5.741251107286958e-16
  outer loop
    vertex 114.99999999999999 0.0 19.0
    vertex 100.00000000000003 4.7939430203314254e-14 7.999999999999999
    vertex 15.0 0.0 19.0
  endloop
endfacet
facet normal -1.2837732426063937e-18 -7.515103221350952e-18 -1.0
  outer loop
    vertex 161.0 52.99999999999999 3.9999999999999996
    vertex 114.99999999999999 50.0 3.9999999999999996
    vertex 114.99999999999999 52.99999999999999 3.9999999999999996
  endloop
endfacet
facet normal -1.2837732426063937e-18 -7.515103221350952e-18 -1.0
  outer loop
    vertex 114.99999999999999 50.0 3.9999999999999996
    vertex 161.0 52.99999999999999 3.9999999999999996
    vertex 143.0 40.0 3.9999999999999996
  endloop
endfacet
facet normal -1.2837732426063937e-18 -7.515103221350952e-18 -1.0
  outer loop
    vertex 114.99999999999999 50.0 3.9999999999999996
    vertex 143.0 40.0 3.9999999999999996
    vertex 114.99999999999999 0.0 3.9999999999999996
  endloop
endfacet
facet normal -1.2837732426063937e-18 -7.515103221350952e-18 -1.0
  outer loop
    vertex 114.99999999999999 0.0 3.9999999999999996
    vertex 143.0 40.0 3.9999999999999996
    vertex 114.99999999999999 -3.0 3.9999999999999996
  endloop
endfacet
facet normal -1.2837732426063937e-18 -7.515103221350952e-18 -1.0
  outer loop
    vertex 143.0 40.0 3.9999999999999996
    vertex 161.0 52.99999999999999 3.9999999999999996
    vertex 146.0 39.99999999999999 3.9999999999999996
  endloop
endfacet
facet normal -1.2837732426063937e-18 -7.515103221350952e-18 -1.0
  outer loop
    vertex 146.0 39.99999999999999 3.9999999999999996
    vertex 161.0 52.99999999999999 3.9999999999999996
    vertex 146.0 9.999999999999998 3.9999999999999996
  endloop
endfacet
facet normal -1.2837732426063937e-18 -7.515103221350952e-18 -1.0
  outer loop
    vertex 114.99999999999999 -3.0 3.9999999999999996
    vertex 143.0 10.0 3.9999999999999996
    vertex 161.0 -3.0 3.9999999999999996
  endloop
endfacet
facet normal -1.2837732426063937e-18 -7.515103221350952e-18 -1.0
  outer loop
    vertex 143.0 10.0 3.9999999999999996
    vertex 114.99999999999999 -3.0 3.9999999999999996
    vertex 143.0 40.0 3.9999999999999996
  endloop
endfacet
facet normal -1.2837732426063937e-18 -7.515103221350952e-18 -1.0
  outer loop
    vertex 161.0 -3.0 3.9999999999999996
    vertex 143.0 10.0 3.9999999999999996
    vertex 146.0 9.999999999999998 3.9999999999999996
  endloop
endfacet
facet normal -1.2837732426063937e-18 -7.515103221350952e-18 -1.0
  outer loop
    vertex 161.0 -3.0 3.9999999999999996
    vertex 146.0 9.999999999999998 3.9999999999999996
    vertex 161.0 52.99999999999999 3.9999999999999996
  endloop
endfacet
facet normal -1.2837732426063937e-18 -7.515103221350952e-18 -1.0
  outer loop
    vertex 79.99999999999999 50.00000000000001 3.9999999999999996
    vertex 0.0 0.0 3.9999999999999996
    vertex 0.0 50.0 3.9999999999999996
  endloop
endfacet
facet normal -1.2837732426063937e-18 -7.515103221350952e-18 -1.0
  outer loop
    vertex 0.0 0.0 3.9999999999999996
    vertex 79.99999999999999 50.00000000000001 3.9999999999999996
    vertex 80.00000000000003 4.7939430203314254e-14 4.000000000000001
  endloop
endfacet
facet normal -1.2837732426063937e-18 -7.515103221350952e-18 -1.0
  outer loop
    vertex 80.00000000000003 4.7939430203314254e-14 4.000000000000001
    vertex 79.99999999999999 50.00000000000001 3.9999999999999996
    vertex 100.0 50.00000000000001 3.9999999999999996
  endloop
endfacet
facet normal -1.2837732426063937e-18 -7.515103221350952e-18 -1.0
  outer loop
    vertex 80.00000000000003 4.7939430203314254e-14 4.000000000000001
    vertex 100.0 50.00000000000001 3.9999999999999996
    vertex 100.00000000000003 4.7939430203314254e-14 4.000000000000001
  endloop
endfacet
facet normal -1.2837732426063937e-18 -7.515103221350952e-18 -1.0
  outer loop
    vertex 100.00000000000003 4.7939430203314254e-14 4.000000000000001
    vertex 100.0 50.00000000000001 3.9999999999999996
    vertex 114.99999999999999 50.0 3.9999999999999996
  endloop
endfacet
facet normal -1.2837732426063937e-18 -7.515103221350952e-18 -1.0
  outer loop
    vertex 100.00000000000003 4.7939430203314254e-14 4.000000000000001
    vertex 114.99999999999999 50.0 3.9999999999999996
    vertex 114.99999999999999 0.0 3.9999999999999996
  endloop
endfacet
facet normal 0.0 0.0 1.0
  outer loop
    vertex 146.0 9.999999999999998 19.0
    vertex 143.0 40.0 19.0
    vertex 143.0 10.0 19.0
  endloop
endfacet
facet normal 0.0 0.0 1.0
  outer loop
    vertex 143.0 40.0 19.0
    vertex 146.0 9.999999999999998 19.0
    vertex 146.0 39.99999999999999 19.0
  endloop
endfacet
facet normal 1.8799776550319353e-15 1.0 -0.0
  outer loop
    vertex 143.0 40.0 19.0
    vertex 146.0 39.99999999999999 3.9999999999999996
    vertex 143.0 40.0 3.9999999999999996
  endloop
endfacet
facet normal 1.8799776550319353e-15 1.0 -0.0
  outer loop
    vertex 146.0 39.99999999999999 3.9999999999999996
    vertex 143.0 40.0 19.0
    vertex 146.0 39.99999999999999 19.0
  endloop
endfacet
facet normal -1.0 -0.0 -0.0
  outer loop
    vertex 143.0 40.0 19.0
    vertex 143.0 10.0 3.9999999999999996
    vertex 143.0 10.0 19.0
  endloop
endfacet
facet normal -1.0 -0.0 -0.0
  outer loop
    vertex 143.0 10.0 3.9999999999999996
    vertex 143.0 40.0 19.0
    vertex 143.0 40.0 3.9999999999999996
  endloop
endfacet
facet normal -4.699944137579838e-16 -1.0 -1.3288870149301235e-46
  outer loop
    vertex 146.0 9.999999999999998 19.0
    vertex 143.0 10.0 3.9999999999999996
    vertex 146.0 9.999999999999998 3.9999999999999996
  endloop
endfacet
facet normal -4.699944137579838e-16 -1.0 -1.3288870149301235e-46
  outer loop
    vertex 143.0 10.0 3.9999999999999996
    vertex 146.0 9.999999999999998 19.0
    vertex 143.0 10.0 19.0
  endloop
endfacet
facet normal -0.0 -0.0 1.0
  outer loop
    vertex 146.0 9.999999999999998 3.9999999999999996
    vertex 143.0 40.0 3.9999999999999996
    vertex 143.0 10.0 3.9999999999999996
  endloop
endfacet
facet normal -0.0 -0.0 1.0
  outer loop
    vertex 143.0 40.0 3.9999999999999996
    vertex 146.0 9.999999999999998 3.9999999999999996
    vertex 146.0 39.99999999999999 3.9999999999999996
  endloop
endfacet
facet normal 1.0 0.0 0.0
  outer loop
    vertex 161.0 52.99999999999999 0.0
    vertex 161.0 -3.0 3.9999999999999996
    vertex 161.0 -3.0 0.0
  endloop
endfacet
facet normal 1.0 0.0 0.0
  outer loop
    vertex 161.0 -3.0 3.9999999999999996
    vertex 161.0 52.99999999999999 0.0
    vertex 161.0 52.99999999999999 3.9999999999999996
  endloop
endfacet
facet normal -1.0 0.0 0.0
  outer loop
    vertex -3.0 -3.0 37.999999999999986
    vertex -3.0 52.99999999999999 3.9999999999999996
    vertex -3.0 -3.0000000000000058 3.9999999999999996
  endloop
endfacet
facet normal -1.0 0.0 0.0
  outer loop
    vertex -3.0 52.99999999999999 3.9999999999999996
    vertex -3.0 -3.0 37.999999999999986
    vertex -3.0 52.99999999999999 37.999999999999986
  endloop
endfacet
facet normal -1.0 0.0 0.0
  outer loop
    vertex -18.0 52.99999999999999 3.9999999999999996
    vertex -18.0 -3.0 0.0
    vertex -18.0 -3.0000000000000058 3.9999999999999996
  endloop
endfacet
facet normal -1.0 0.0 0.0
  outer loop
    vertex -18.0 -3.0 0.0
    vertex -18.0 52.99999999999999 3.9999999999999996
    vertex -18.0 52.99999999999999 0.0
  endloop
endfacet
facet normal 0.0 -0.0 1.0
  outer loop
    vertex -3.0 -3.0000000000000058 3.9999999999999996
    vertex -18.0 52.99999999999999 3.9999999999999996
    vertex -18.0 -3.0000000000000058 3.9999999999999996
  endloop
endfacet
facet normal 0.0 -0.0 1.0
  outer loop
    vertex -18.0 52.99999999999999 3.9999999999999996
    vertex -3.0 -3.0000000000000058 3.9999999999999996
    vertex -3.0 52.99999999999999 3.9999999999999996
  endloop
endfacet
facet normal -0.0 3.084338340286763e-16 -1.0
  outer loop
    vertex 80.00000000000003 4.7939430203314254e-14 7.999999999999999
    vertex 100.0 -3.000000000000003 7.999999999999999
    vertex 79.99999999999999 -3.000000000000003 7.999999999999999
  endloop
endfacet
facet normal -0.0 3.084338340286763e-16 -1.0
  outer loop
    vertex 100.0 -3.000000000000003 7.999999999999999
    vertex 80.00000000000003 4.7939430203314254e-14 7.999999999999999
    vertex 100.00000000000003 4.7939430203314254e-14 7.999999999999999
  endloop
endfacet
facet normal 1.0 -1.1279865930191397e-14 4.814815231318032e-31
  outer loop
    vertex 80.00000000000003 4.7939430203314254e-14 4.000000000000001
    vertex 79.99999999999999 -3.000000000000003 7.999999999999999
    vertex 79.99999999999999 -3.000000000000003 3.9999999999999996
  endloop
endfacet
facet normal 1.0 -1.1279865930191397e-14 4.814815231318032e-31
  outer loop
    vertex 79.99999999999999 -3.000000000000003 7.999999999999999
    vertex 80.00000000000003 4.7939430203314254e-14 4.000000000000001
    vertex 80.00000000000003 4.7939430203314254e-14 7.999999999999999
  endloop
endfacet
facet normal 3.851852185054428e-32 -4.699944137579751e-16 1.0
  outer loop
    vertex 100.0 -3.0 3.9999999999999996
    vertex 80.00000000000003 4.7939430203314254e-14 4.000000000000001
    vertex 79.99999999999999 -3.000000000000003 3.9999999999999996
  endloop
endfacet
facet normal 3.851852185054428e-32 -4.699944137579751e-16 1.0
  outer loop
    vertex 80.00000000000003 4.7939430203314254e-14 4.000000000000001
    vertex 100.0 -3.0 3.9999999999999996
    vertex 100.00000000000003 4.7939430203314254e-14 4.000000000000001
  endloop
endfacet
facet normal -1.0 1.1279865930191407e-14 4.25256906559663e-30
  outer loop
    vertex 100.00000000000003 4.7939430203314254e-14 7.999999999999999
    vertex 100.0 -3.0 3.9999999999999996
    vertex 100.0 -3.000000000000003 7.999999999999999
  endloop
endfacet
facet normal -1.0 1.1279865930191407e-14 4.25256906559663e-30
  outer loop
    vertex 100.0 -3.0 3.9999999999999996
    vertex 100.00000000000003 4.7939430203314254e-14 7.999999999999999
    vertex 100.00000000000003 4.7939430203314254e-14 4.000000000000001
  endloop
endfacet
facet normal 0.0 -0.0 -1.0
  outer loop
    vertex 100.0 52.99999999999999 8.0
    vertex 79.99999999999999 50.00000000000001 8.0
    vertex 79.99999999999999 52.99999999999999 8.0
  endloop
endfacet
facet normal 0.0 -0.0 -1.0
  outer loop
    vertex 79.99999999999999 50.00000000000001 8.0
    vertex 100.0 52.99999999999999 8.0
    vertex 100.0 50.00000000000001 8.0
  endloop
endfacet
facet normal -1.0 0.0 0.0
  outer loop
    vertex 100.0 52.99999999999999 8.0
    vertex 100.0 50.00000000000001 3.9999999999999996
    vertex 100.0 50.00000000000001 8.0
  endloop
endfacet
facet normal -1.0 0.0 0.0
  outer loop
    vertex 100.0 50.00000000000001 3.9999999999999996
    vertex 100.0 52.99999999999999 8.0
    vertex 100.0 52.99999999999999 3.9999999999999996
  endloop
endfacet
facet normal -0.0 -0.0 1.0
  outer loop
    vertex 100.0 50.00000000000001 3.9999999999999996
    vertex 79.99999999999999 52.99999999999999 3.9999999999999996
    vertex 79.99999999999999 50.00000000000001 3.9999999999999996
  endloop
endfacet
facet normal -0.0 -0.0 1.0
  outer loop
    vertex 79.99999999999999 52.99999999999999 3.9999999999999996
    vertex 100.0 50.00000000000001 3.9999999999999996
    vertex 100.0 52.99999999999999 3.9999999999999996
  endloop
endfacet
facet normal 1.0 -0.0 -0.0
  outer loop
    vertex 79.99999999999999 52.99999999999999 3.9999999999999996
    vertex 79.99999999999999 50.00000000000001 8.0
    vertex 79.99999999999999 50.00000000000001 3.9999999999999996
  endloop
endfacet
facet normal 1.0 -0.0 -0.0
  outer loop
    vertex 79.99999999999999 50.00000000000001 8.0
    vertex 79.99999999999999 52.99999999999999 3.9999999999999996
    vertex 79.99999999999999 52.99999999999999 8.0
  endloop
endfacet
facet normal 1.0 -0.0 0.0
  outer loop
    vertex 0.0 50.0 3.9999999999999996
    vertex 0.0 0.0 34.0
    vertex 0.0 0.0 3.9999999999999996
  endloop
endfacet
facet normal 1.0 -0.0 0.0
  outer loop
    vertex 0.0 0.0 34.0
    vertex 0.0 50.0 3.9999999999999996
    vertex 0.0 50.0 34.0
  endloop
endfacet
facet normal 0.0 0.0 -1.0
  outer loop
    vertex 14.999999999999995 50.0 34.0
    vertex 0.0 0.0 34.0
    vertex 0.0 50.0 34.0
  endloop
endfacet
facet normal 0.0 0.0 -1.0
  outer loop
    vertex 0.0 0.0 34.0
    vertex 14.999999999999995 50.0 34.0
    vertex 15.0 0.0 34.0
  endloop
endfacet
facet normal -3.133296091719885e-16 -1.506878907659417e-32 1.0
  outer loop
    vertex 15.0 -3.0 37.999999999999986
    vertex -3.0 52.99999999999999 37.999999999999986
    vertex -3.0 -3.0 37.999999999999986
  endloop
endfacet
facet normal -3.133296091719885e-16 -1.506878907659417e-32 1.0
  outer loop
    vertex -3.0 52.99999999999999 37.999999999999986
    vertex 15.0 -3.0 37.999999999999986
    vertex 14.999999999999998 52.99999999999999 37.999999999999986
  endloop
endfacet
endsolid Suport 2299mah 3s Lipo Battery
